<svg xmlns="http://www.w3.org/2000/svg" viewBox="0 0 500 150" style="background: rgba(33, 93, 56, 0);" preserveAspectRatio="xMidYMid"><defs><filter id="editing-hover" x="-100%" y="-100%" width="300%" height="300%"><feFlood flood-color="#2f3c2d" result="flood"></feFlood><feComposite operator="in" in2="SourceAlpha" in="flood" result="shadow"></feComposite><feOffset dx="2.8" dy="-1.9" in="SourceGraphic" result="offset-1"></feOffset><feOffset dx="-2.8" dy="1.9" in="shadow" result="offset-2"></feOffset><feMerge><feMergeNode in="offset-2"></feMergeNode><feMergeNode in="offset-1"></feMergeNode></feMerge></filter></defs><g filter="url(#editing-hover)"><g transform="translate(3.469982385635376, 103.9000015258789)"><path d="M39.72-39.80L39.72-39.80L32.50-39.96L32.50-39.96Q29.67-39.96 25.94-39.39L25.94-39.39L25.94-39.39Q25.78-36.23 25.29-31.21L25.29-31.21L25.29-31.21Q23.59-13.37 23.59-8.06L23.59-8.06L23.59-8.06Q23.59-2.76 23.75-0.57L23.75-0.57L16.13 0L18.64-40.04L1.38-41.01L1.38-41.01Q0.73-41.01 0.36-42.07L0.36-42.07L0.36-42.07Q0-43.12 0-44.01L0-44.01L0-44.01Q0-44.90 0.73-45.96L0.73-45.96L0.73-45.96Q1.46-47.01 2.43-47.01L2.43-47.01L2.43-47.01Q8.35-46.77 14.35-46.20L14.35-46.20L14.35-46.20Q25.45-45.23 33.23-45.23L33.23-45.23L38.26-45.39L38.26-45.39Q44.17-45.55 50.01-46.69L50.01-46.69L50.01-46.69Q51.31-46.44 51.63-42.63L51.63-42.63L51.63-42.63Q51.71-41.82 51.71-41.34L51.71-41.34L51.71-41.34Q46.36-39.80 39.72-39.80ZM60.22-45.80L60.22-1.30L60.22-1.30Q60.22 0.08 58.28 0.08L58.28 0.08L58.28 0.08Q56.82 0.08 54.79-1.30L54.79-1.30L54.79-1.30Q53.82-3.49 53.82-11.75L53.82-11.75L53.82-11.75Q53.82-20.02 53.98-25.41L53.98-25.41L53.98-25.41Q54.14-30.80 54.31-35.34L54.31-35.34L54.31-35.34Q54.79-45.23 54.79-45.80L54.79-45.80L54.79-45.80Q57.14-47.17 58.68-47.17L58.68-47.17L58.68-47.17Q60.22-47.17 60.22-45.80L60.22-45.80ZM106.59-44.99L106.59-44.99L106.59-44.99Q101.32-50.17 94.92-50.17L94.92-50.17L94.92-50.17Q88.84-50.17 83.24-45.55L83.24-45.55L83.24-45.55Q76.19-39.72 73.52-30.48L73.52-30.48L73.52-30.48Q72.54-27.15 72.54-24.96L72.54-24.96L72.54-24.96Q72.54-22.78 72.71-21.56L72.71-21.56L72.71-21.56Q72.71-13.54 78.14-9.24L78.14-9.24L78.14-9.24Q83.24-5.27 91.19-5.27L91.19-5.27L91.19-5.27Q102.05-6.16 112.02-13.62L112.02-13.62L112.02-13.62Q114.77-15.72 117.85-17.67L117.85-17.67L117.85-17.67Q118.99-17.67 120.16-17.35L120.16-17.35L120.16-17.35Q121.34-17.02 121.34-15.48L121.34-15.48L121.34-15.48Q113.31-8.51 107.80-5.43L107.80-5.43L107.80-5.43Q97.59 0.08 89.32 0.08L89.32 0.08L89.32 0.08Q88.75 0.08 88.27 0.08L88.27 0.08L88.27 0.08Q79.27 0.08 72.87-5.51L72.87-5.51L72.87-5.51Q66.06-11.43 66.06-20.26L66.06-20.26L66.06-20.26Q66.06-26.91 68.45-32.99L68.45-32.99L68.45-32.99Q70.84-39.07 75.02-43.73L75.02-43.73L75.02-43.73Q79.19-48.39 84.90-51.15L84.90-51.15L84.90-51.15Q90.62-53.90 97.18-53.90L97.18-53.90L97.18-53.90Q102.78-53.90 104.48-52.36L104.48-52.36L104.48-52.36Q106.59-50.50 106.59-44.99ZM145.09-19.13L129.53-17.51L129.53-17.51Q125.47-17.51 125.47-19.62L125.47-19.62L125.47-19.62Q125.47-20.67 126.40-21.07L126.40-21.07L126.40-21.07Q127.34-21.48 129.65-21.80L129.65-21.80L129.65-21.80Q131.96-22.13 135.48-22.78L135.48-22.78L135.48-22.78Q139.01-23.42 142.90-23.83L142.90-23.83L142.90-23.83Q144.52-23.83 145.66-23.26L145.66-23.26L145.66-23.26Q147.28-22.45 147.28-21.32L147.28-21.32L147.28-21.32Q147.28-20.91 146.91-20.26L146.91-20.26L146.91-20.26Q146.55-19.62 145.09-19.13L145.09-19.13ZM188.53-39.80L188.53-39.80L181.32-39.96L181.32-39.96Q178.48-39.96 174.75-39.39L174.75-39.39L174.75-39.39Q174.59-36.23 174.11-31.21L174.11-31.21L174.11-31.21Q172.40-13.37 172.40-8.06L172.40-8.06L172.40-8.06Q172.40-2.76 172.57-0.57L172.57-0.57L164.95 0L167.46-40.04L150.19-41.01L150.19-41.01Q149.55-41.01 149.18-42.07L149.18-42.07L149.18-42.07Q148.82-43.12 148.82-44.01L148.82-44.01L148.82-44.01Q148.82-44.90 149.55-45.96L149.55-45.96L149.55-45.96Q150.28-47.01 151.25-47.01L151.25-47.01L151.25-47.01Q157.17-46.77 163.16-46.20L163.16-46.20L163.16-46.20Q174.27-45.23 182.05-45.23L182.05-45.23L187.07-45.39L187.07-45.39Q192.99-45.55 198.83-46.69L198.83-46.69L198.83-46.69Q200.12-46.44 200.45-42.63L200.45-42.63L200.45-42.63Q200.53-41.82 200.53-41.34L200.53-41.34L200.53-41.34Q195.18-39.80 188.53-39.80ZM245.03-29.67L245.03-29.67L247.30-29.67L247.30-29.67Q248.68-29.67 249.93-29.42L249.93-29.42L249.93-29.42Q251.19-29.18 251.19-27.64L251.19-27.64L251.19-27.64Q251.76-24.40 247.38-24.48L247.38-24.48L247.38-24.48Q246.16-24.56 245.15-24.64L245.15-24.64L245.15-24.64Q244.14-24.72 243.49-24.68L243.49-24.68L243.49-24.68Q242.84-24.64 242.92-24.24L242.92-24.24L242.92-24.24Q243.73-21.88 244.66-18.97L244.66-18.97L244.66-18.97Q245.60-16.05 246.73-13.13L246.73-13.13L246.73-13.13Q249.65-5.92 252.24-2.76L252.24-2.76L252.24-2.76Q250.86-1.05 249.04 0.08L249.04 0.08L249.04 0.08Q247.22 1.22 247.10 1.22L247.10 1.22L247.10 1.22Q246.97 1.22 246.89 1.13L246.89 1.13L235.46-22.94L213.34-17.51L212.53-14.10L212.53-14.10Q210.17-4.78 207.26-1.13L207.26-1.13L207.26-1.13Q206.77-0.32 205.23-0.97L205.23-0.97L205.23-0.97Q202.64-1.95 202.64-2.59L202.64-2.59L202.64-2.59Q202.64-2.76 204.34-7.29L204.34-7.29L204.34-7.29Q206.04-11.83 207.78-16.49L207.78-16.49L207.78-16.49Q209.53-21.16 211.43-26.26L211.43-26.26L211.43-26.26Q213.34-31.37 215.04-35.99L215.04-35.99L215.04-35.99Q216.74-40.61 218.12-44.30L218.12-44.30L218.12-44.30Q219.50-47.98 220.06-49.65L220.06-49.65L220.06-49.65Q220.63-51.31 220.83-52.56L220.83-52.56L220.83-52.56Q221.04-53.82 221.44-54.71L221.44-54.71L221.44-54.71Q222.25-56.58 225.49-56.58L225.49-56.58L225.49-56.58Q228.98-54.63 230.88-51.51L230.88-51.51L230.88-51.51Q232.79-48.39 234.13-44.82L234.13-44.82L234.13-44.82Q235.46-41.26 236.76-37.61L236.76-37.61L236.76-37.61Q238.06-33.96 240.25-30.96L240.25-30.96L240.25-30.96Q240.98-29.83 242.43-29.75L242.43-29.75L242.43-29.75Q243.89-29.67 245.03-29.67ZM224.76-47.17L224.76-47.17L224.76-47.17Q224.12-42.23 221.85-37.04L221.85-37.04L221.85-37.04Q219.58-31.85 218.20-28.98L218.20-28.98L218.20-28.98Q216.82-26.10 215.85-23.67L215.85-23.67L215.85-23.67Q221.36-23.67 229.38-26.91L229.38-26.91L229.38-26.91Q231.41-27.80 233.28-28.53L233.28-28.53L233.28-28.53Q229.47-44.82 224.76-47.17ZM296.01-44.99L296.01-44.99L296.01-44.99Q290.74-50.17 284.34-50.17L284.34-50.17L284.34-50.17Q278.26-50.17 272.67-45.55L272.67-45.55L272.67-45.55Q265.62-39.72 262.94-30.48L262.94-30.48L262.94-30.48Q261.97-27.15 261.97-24.96L261.97-24.96L261.97-24.96Q261.97-22.78 262.13-21.56L262.13-21.56L262.13-21.56Q262.13-13.54 267.56-9.24L267.56-9.24L267.56-9.24Q272.67-5.27 280.61-5.27L280.61-5.27L280.61-5.27Q291.47-6.16 301.44-13.62L301.44-13.62L301.44-13.62Q304.20-15.72 307.28-17.67L307.28-17.67L307.28-17.67Q308.41-17.67 309.59-17.35L309.59-17.35L309.59-17.35Q310.76-17.02 310.76-15.48L310.76-15.48L310.76-15.48Q302.74-8.51 297.23-5.43L297.23-5.43L297.23-5.43Q287.01 0.08 278.75 0.08L278.75 0.08L278.75 0.08Q278.18 0.08 277.69 0.08L277.69 0.08L277.69 0.08Q268.70 0.08 262.29-5.51L262.29-5.51L262.29-5.51Q255.48-11.43 255.48-20.26L255.48-20.26L255.48-20.26Q255.48-26.91 257.88-32.99L257.88-32.99L257.88-32.99Q260.27-39.07 264.44-43.73L264.44-43.73L264.44-43.73Q268.62-48.39 274.33-51.15L274.33-51.15L274.33-51.15Q280.04-53.90 286.61-53.90L286.61-53.90L286.61-53.90Q292.20-53.90 293.90-52.36L293.90-52.36L293.90-52.36Q296.01-50.50 296.01-44.99ZM334.51-19.13L318.95-17.51L318.95-17.51Q314.90-17.51 314.90-19.62L314.90-19.62L314.90-19.62Q314.90-20.67 315.83-21.07L315.83-21.07L315.83-21.07Q316.76-21.48 319.07-21.80L319.07-21.80L319.07-21.80Q321.38-22.13 324.91-22.78L324.91-22.78L324.91-22.78Q328.43-23.42 332.32-23.83L332.32-23.83L332.32-23.83Q333.95-23.83 335.08-23.26L335.08-23.26L335.08-23.26Q336.70-22.45 336.70-21.32L336.70-21.32L336.70-21.32Q336.70-20.91 336.34-20.26L336.34-20.26L336.34-20.26Q335.97-19.62 334.51-19.13L334.51-19.13ZM377.96-39.80L377.96-39.80L370.74-39.96L370.74-39.96Q367.91-39.96 364.18-39.39L364.18-39.39L364.18-39.39Q364.02-36.23 363.53-31.21L363.53-31.21L363.53-31.21Q361.83-13.37 361.83-8.06L361.83-8.06L361.83-8.06Q361.83-2.76 361.99-0.57L361.99-0.57L354.37 0L356.88-40.04L339.62-41.01L339.62-41.01Q338.97-41.01 338.61-42.07L338.61-42.07L338.61-42.07Q338.24-43.12 338.24-44.01L338.24-44.01L338.24-44.01Q338.24-44.90 338.97-45.96L338.97-45.96L338.97-45.96Q339.70-47.01 340.67-47.01L340.67-47.01L340.67-47.01Q346.59-46.77 352.59-46.20L352.59-46.20L352.59-46.20Q363.69-45.23 371.47-45.23L371.47-45.23L376.50-45.39L376.50-45.39Q382.42-45.55 388.25-46.69L388.25-46.69L388.25-46.69Q389.55-46.44 389.87-42.63L389.87-42.63L389.87-42.63Q389.95-41.82 389.95-41.34L389.95-41.34L389.95-41.34Q384.60-39.80 377.96-39.80ZM393.68-13.62L393.68-13.62L393.68-13.62Q391.74-17.99 391.74-23.91L391.74-23.91L391.74-23.91Q391.74-29.83 393.64-34.41L393.64-34.41L393.64-34.41Q395.55-38.99 398.87-42.31L398.87-42.31L398.87-42.31Q405.92-49.20 416.54-49.20L416.54-49.20L416.54-49.20Q427.64-49.20 434.86-44.09L434.86-44.09L434.86-44.09Q442.96-38.26 442.96-27.40L442.96-27.40L442.96-27.40Q442.96-13.94 436.76-7.54L436.76-7.54L436.76-7.54Q430.56-1.13 417.43-1.13L417.43-1.13L417.43-1.13Q399.19-1.13 393.68-13.62ZM398.38-25.53L398.38-25.53L398.38-25.53Q398.38-6.40 417.67-6.40L417.67-6.40L417.67-6.40Q427.16-6.40 433.08-12.08L433.08-12.08L433.08-12.08Q438.99-17.67 438.99-26.75L438.99-26.75L438.99-26.75Q438.99-35.26 431.94-39.72L431.94-39.72L431.94-39.72Q425.94-43.61 416.78-43.61L416.78-43.61L416.78-43.61Q409.49-43.61 403.90-38.34L403.90-38.34L403.90-38.34Q398.38-33.07 398.38-25.53ZM456.09-51.06L474.17-51.47L474.17-51.47Q482.28-51.47 484.95-50.42L484.95-50.42L484.95-46.44L484.95-46.44Q482.76-46.12 478.95-46.08L478.95-46.08L478.95-46.08Q475.14-46.04 470.85-45.96L470.85-45.96L470.85-45.96Q458.85-45.71 454.47-44.74L454.47-44.74L454.47-44.74Q453.10-38.26 453.18-35.91L453.18-35.91L453.18-35.91Q453.26-33.56 453.34-32.26L453.34-32.26L453.34-32.26Q453.66-29.10 453.66-24.80L453.66-24.80L453.66-24.80Q459.17-24.80 466.27-25.78L466.27-25.78L466.27-25.78Q473.36-26.75 477.25-27.19L477.25-27.19L477.25-27.19Q481.14-27.64 485.27-27.64L485.27-27.64L485.27-23.18L454.23-19.29L454.72-6.00L454.72-6.00Q462.74-6.00 471.13-6.77L471.13-6.77L471.13-6.77Q479.52-7.54 483.86-7.90L483.86-7.90L483.86-7.90Q488.19-8.27 493.06-8.27L493.06-8.27L493.06-8.27Q493.06-6.65 492.08-5.19L492.08-5.19L492.08-5.19Q490.14-2.59 488.60-3.65L488.60-3.65L488.60-3.65Q474.33-2.11 463.11-1.22L463.11-1.22L463.11-1.22Q451.88-0.32 447.99 0L447.99 0L448.31-51.71L448.31-51.71Q450.42-51.06 456.09-51.06L456.09-51.06Z" fill="antiquewhite"></path></g></g><style>text {
  font-size: 64px;
  font-family: Arial Black;
  dominant-baseline: central;
  text-anchor: middle;
}</style></svg>